<?xml version="1.0" encoding="utf-8"?>
<!-- Uploaded to: SVG Repo, www.svgrepo.com, Generator: SVG Repo Mixer Tools -->
<svg width="800px" height="800px" viewBox="0 0 1024 1024" class="icon"  version="1.1" xmlns="http://www.w3.org/2000/svg"><path d="M513.6 828.064c-0.384-3.712-0.416-7.52-0.672-11.296C512.64 811.2 512 805.696 512 800l0.064-1.024-0.064-1.024a288 288 0 0 1 288-288c36.192 0 70.688 6.976 102.592 19.168L496 122.528 96 522.496v499.424h520.48a286.976 286.976 0 0 1-102.88-193.856z" fill="#EAEAEA" /><path d="M256 669.952h224v352H256z" fill="#434854" /><path d="M768 511.808v-1.888h-96v30.272a286.272 286.272 0 0 1 96-28.384zM560.576 637.952H544v28.448a279.36 279.36 0 0 1 16.576-28.448zM640 558.496v-48.576h-96v96h41.76A290.24 290.24 0 0 1 640 558.496z" fill="#469FCC" /><path d="M544 509.952h96v32h-96zM768 511.808v-1.888h-96v30.272a286.272 286.272 0 0 1 96-28.384zM560.576 637.952H544v28.448a279.36 279.36 0 0 1 16.576-28.448z" fill="" /><path d="M238.24 1021.952a126.656 126.656 0 0 0 17.76-64 128 128 0 0 0-256 0c0 23.424 6.752 45.088 17.76 64h220.48z" fill="#3AAD73" /><path d="M928 540.224v-30.272l-432-448-400 416v96l400-400 338.208 338.208a285.888 285.888 0 0 1 93.792 28.064z" fill="" /><path d="M983.168 575.68c2.336-1.376 4.768-2.496 6.784-4.512l22.624-22.624a31.968 31.968 0 0 0 0-45.248L541.248 32l-22.624-22.624a31.968 31.968 0 0 0-45.248 0L450.752 32 11.424 471.328a31.968 31.968 0 0 0 0 45.248l22.624 22.624a31.968 31.968 0 0 0 45.248 0L496 122.528l406.592 406.56a287.04 287.04 0 0 1 80.576 46.592zM800 573.952c-123.68 0-224 100.32-224 224s100.32 224 224 224 224-100.32 224-224-100.32-224-224-224z" fill="#EF4D4D" /><path d="M928 797.92a32 32 0 0 1-32 32h-192a32 32 0 1 1 0-64h192a32 32 0 0 1 32 32z" fill="#FFFFFF" /></svg>